HIERARCHY
ROOT Hips
{
	OFFSET -3.958830 18.904000 13.208200
	CHANNELS 6 Xposition Yposition Zposition Zrotation Yrotation Xrotation 
	JOINT LHipJoint
	{
		OFFSET 0.000000 0.000000 0.000000
		CHANNELS 3 Zrotation Yrotation Xrotation
		JOINT LeftUpLeg
		{
			OFFSET 1.800000 -1.400000 0.085000
			CHANNELS 3 Zrotation Yrotation Xrotation
			JOINT LeftLeg
			{
				OFFSET 2.215000 -6.000000 0.000000
				CHANNELS 3 Zrotation Yrotation Xrotation
				JOINT LeftFoot
				{
					OFFSET 2.500000 -6.900000 0.000000
					CHANNELS 3 Zrotation Yrotation Xrotation
					JOINT LeftToeBase
					{
						OFFSET 0.200000 -0.500000 1.950000
						CHANNELS 3 Zrotation Yrotation Xrotation
						End Site
						{
							OFFSET 0.000000 0.000000 0.000000
						}
					}
				}
			}
		}
	}
	JOINT RHipJoint
	{
		OFFSET 0.000000 0.000000 0.000000
		CHANNELS 3 Zrotation Yrotation Xrotation
		JOINT RightUpLeg
		{
			OFFSET -1.800000 -1.400000 0.085000
			CHANNELS 3 Zrotation Yrotation Xrotation
			JOINT RightLeg
			{
				OFFSET -2.215000 -6.000000 0.000000
				CHANNELS 3 Zrotation Yrotation Xrotation
				JOINT RightFoot
				{
					OFFSET -2.500000 -6.900000 0.000000
					CHANNELS 3 Zrotation Yrotation Xrotation
					JOINT RightToeBase
					{
						OFFSET -0.200000 -0.500000 1.950000
						CHANNELS 3 Zrotation Yrotation Xrotation
						End Site
						{
							OFFSET 0.000000 0.000000 0.000000
						}
					}
				}
			}
		}
	}
	JOINT LowerBack
	{
		OFFSET 0.000000 0.000000 0.000000
		CHANNELS 3 Zrotation Yrotation Xrotation
		JOINT Spine
		{
			OFFSET -0.087000 1.940000 -0.288900
			CHANNELS 3 Zrotation Yrotation Xrotation
			JOINT Spine1
			{
				OFFSET 0.000000 1.950000 0.060000
				CHANNELS 3 Zrotation Yrotation Xrotation
				JOINT Neck
				{
					OFFSET 0.000000 0.000000 0.000000
					CHANNELS 3 Zrotation Yrotation Xrotation
					JOINT Neck1
					{
						OFFSET 0.000000 1.600000 0.340000
						CHANNELS 3 Zrotation Yrotation Xrotation
						JOINT Head
						{
							OFFSET 0.000000 1.667000 -0.240000
							CHANNELS 3 Zrotation Yrotation Xrotation
							End Site
							{
								OFFSET 0.000000 0.000000 0.000000
							}
						}
					}
				}
				JOINT LeftShoulder
				{
					OFFSET 0.000000 0.000000 0.000000
					CHANNELS 3 Zrotation Yrotation Xrotation
					JOINT LeftArm
					{
						OFFSET 2.700000 1.550000 -0.730000
						CHANNELS 3 Zrotation Yrotation Xrotation
						JOINT LeftForeArm
						{
							OFFSET 5.450000 0.000000 0.000000
							CHANNELS 3 Zrotation Yrotation Xrotation
							JOINT LeftHand
							{
								OFFSET 3.450000 0.000000 0.000000
								CHANNELS 3 Zrotation Yrotation Xrotation
								JOINT LeftHandIndex1
								{
									OFFSET 0.750000 0.000000 0.000000
									CHANNELS 3 Zrotation Yrotation Xrotation
									End Site
									{
										OFFSET 0.000000 0.000000 0.000000
									}
								}
							}
						}
					}
				}
				JOINT RightShoulder
				{
					OFFSET 0.000000 0.000000 0.000000
					CHANNELS 3 Zrotation Yrotation Xrotation
					JOINT RightArm
					{
						OFFSET -2.700000 1.550000 -0.730000
						CHANNELS 3 Zrotation Yrotation Xrotation
						JOINT RightForeArm
						{
							OFFSET -5.450000 0.000000 0.000000
							CHANNELS 3 Zrotation Yrotation Xrotation
							JOINT RightHand
							{
								OFFSET -3.450000 0.000000 0.000000
								CHANNELS 3 Zrotation Yrotation Xrotation
								JOINT RightHandIndex1
								{
									OFFSET -0.750000 0.000000 0.000000
									CHANNELS 3 Zrotation Yrotation Xrotation
									End Site
									{
										OFFSET 0.000000 0.000000 0.000000
									}
								}
							}
						}
					}
				}
			}
		}
	}
}
MOTION
Frames: 4
Frame Time: 0.016667
-0.967680 16.052140 -2.141200 -165.211914 66.535277 -174.446093 -15.342124 11.728930 3.972553 9.326299 -7.188969 -26.290752 -11.886238 16.168069 46.968017 0.529049 9.981327 1.080160 0.427680 0.203580 0.182430 18.129255 -10.370997 3.408674 -31.273411 -0.581326 -29.135564 -2.523913 -3.151341 5.311789 -0.165599 -3.193396 3.006658 0.205210 0.243810 0.107300 -3.797224 0.142764 -8.756948 13.468478 0.522629 24.754354 -2.552847 3.567084 18.281439 3.599762 3.941793 -20.308287 8.632384 -20.863367 25.440876 5.966390 -20.493240 -18.537510 -8.099292 -28.882684 7.978223 -8.887229 -10.850805 -3.957717 24.892752 -10.831565 -3.884299 -3.796228 3.014299 0.423020 -0.053230 -0.064780 0.182340 0.210095 33.447367 12.961072 8.478508 21.879215 -0.339374 -12.062428 -8.561566 -0.051367 3.022390 -1.181841 -0.160760 0.360070 0.052350 -0.035350 
-0.956920 16.073190 -2.210540 -162.404221 69.913561 -172.237103 -15.327473 11.672496 3.963050 10.472821 -7.646148 -24.099427 -15.042798 16.772584 44.788083 0.562913 10.056182 1.084402 0.303350 0.029050 0.068210 18.174569 -10.373778 3.353537 -36.318517 -1.751866 -25.798315 3.069554 -5.232729 10.488456 -0.203505 -4.110962 2.673644 0.095520 0.306090 0.106890 -3.825103 -0.097413 -8.747583 14.211645 -0.588441 26.278922 -3.247862 3.091482 17.361240 2.987244 3.995062 -20.124678 8.538904 -21.847103 25.041112 9.152810 -22.376820 -19.181730 -8.529043 -27.615476 7.491371 -8.414606 -9.396702 -4.662030 25.467531 -12.578756 -4.347505 -3.786283 2.961057 0.470320 -0.051130 -0.108280 0.162670 1.592475 31.264697 14.843950 10.064185 15.125479 -0.152975 -10.020136 -8.819738 0.372188 2.908854 -1.041528 -0.203190 0.367040 0.142520 -0.033070 
-0.943470 16.153690 -2.269670 -158.280863 73.375271 -169.481424 -15.294909 12.065781 3.933560 11.183335 -7.521746 -20.734463 -17.093792 16.503387 41.725744 0.602842 9.681413 1.195555 0.276420 -0.024730 0.138970 18.141418 -10.538742 3.098840 -38.709015 -2.671557 -22.043342 3.313889 -6.503602 15.114360 -0.298243 -4.621293 2.457236 0.005870 0.171330 0.094160 -3.454411 -0.790165 -8.715959 13.783403 -0.586496 28.750678 -3.026354 3.384860 15.054370 2.876305 4.374910 -20.766496 8.354228 -22.881542 27.786954 9.407480 -23.330560 -20.568780 -10.016171 -27.844169 7.595589 -6.043512 -10.073899 -3.830328 23.092169 -3.220411 -2.601131 -3.890998 2.877793 0.526820 -0.152570 -0.027550 0.100670 2.979723 31.044977 15.638549 11.079594 9.720737 -2.402213 -4.958235 -19.783014 0.930444 3.275851 -0.749707 -0.160970 0.297130 0.114470 -0.062480 
-0.864920 16.297110 -2.313870 -152.919723 78.268023 -166.113223 -15.256080 12.746697 3.773190 10.404670 -6.542186 -15.423236 -17.512098 15.193081 37.759844 0.736402 8.789901 1.479327 0.345050 0.060290 0.139250 18.046148 -10.744409 2.955950 -40.750839 -3.128097 -17.344723 2.791753 -7.240645 18.033623 -0.469087 -5.023002 2.304109 -0.089910 -0.013980 0.132340 -3.140617 -1.808095 -8.675848 12.989394 -0.859569 31.761640 -3.044404 3.629080 11.929879 2.492855 2.575321 -21.500465 2.959862 -21.765094 35.292587 14.270900 -25.391730 -23.356470 -10.770865 -27.681897 6.259945 -6.718091 -14.329951 -3.714879 21.385857 8.225294 -0.899265 -3.922435 2.990502 0.556960 -0.323420 0.113970 0.133870 4.933845 31.763686 17.409006 11.200748 4.497524 -3.335957 -3.938253 -20.827300 1.012012 3.424495 -0.747803 0.026140 0.110720 0.002330 0.004980 
